<svg width="515" height="515" viewBox="0 0 515 515" fill="none" xmlns="http://www.w3.org/2000/svg">
<path d="M226.026 164.625C263.777 189.288 294.041 201.619 316.5 201.619C338.959 201.619 369.064 189.288 406.974 164.625C409.016 163.28 411.387 162.51 413.835 162.398C416.283 162.286 418.716 162.835 420.874 163.987C423.032 165.139 424.835 166.851 426.09 168.94C427.345 171.029 428.005 173.417 428 175.85V343.905C428 356.552 421.947 368.568 411.594 375.998C371.613 404.613 339.915 419 316.5 419C293.085 419 261.387 404.771 221.407 375.998C216.308 372.319 212.162 367.492 209.31 361.912C206.457 356.333 204.98 350.161 205 343.905V175.85C204.995 173.417 205.655 171.029 206.91 168.94C208.165 166.851 209.968 165.139 212.126 163.987C214.284 162.835 216.717 162.286 219.165 162.398C221.613 162.51 223.984 163.28 226.026 164.625ZM316.5 158.143C281.457 158.143 252.786 142.333 252.786 122.571C252.786 102.968 281.457 87 316.5 87C351.543 87 380.214 102.81 380.214 122.571C380.214 142.175 351.543 158.143 316.5 158.143Z" fill="url(#paint0_linear_10_78)"/>
<path fill-rule="evenodd" clip-rule="evenodd" d="M264.105 402.889C251.113 396.092 236.88 387.134 221.407 375.998C216.308 372.319 212.162 367.492 209.31 361.912C206.457 356.333 204.98 350.161 205 343.905V222.586C255.555 231.355 294 275.438 294 328.5C294 357.367 282.622 383.577 264.105 402.889Z" fill="#229ED9" fill-opacity="0.1"/>
<path d="M186.5 427.079C240.944 427.079 285.079 382.944 285.079 328.5C285.079 274.056 240.944 229.921 186.5 229.921C132.056 229.921 87.9212 274.056 87.9212 328.5C87.9212 382.944 132.056 427.079 186.5 427.079Z" fill="url(#paint1_linear_10_78)"/>
<path fill-rule="evenodd" clip-rule="evenodd" d="M132.544 327.459C161.281 314.939 180.444 306.685 190.033 302.696C217.409 291.31 223.097 289.332 226.805 289.266C227.621 289.252 229.444 289.454 230.625 290.412C231.622 291.222 231.897 292.315 232.028 293.082C232.159 293.849 232.323 295.597 232.193 296.963C230.709 312.55 224.29 350.378 221.024 367.836C219.643 375.223 216.922 377.7 214.288 377.943C208.563 378.469 204.216 374.159 198.671 370.525C189.995 364.837 185.093 361.297 176.672 355.747C166.939 349.333 173.248 345.808 178.795 340.047C180.247 338.54 205.47 315.597 205.958 313.516C206.019 313.256 206.075 312.286 205.499 311.773C204.923 311.261 204.072 311.436 203.458 311.575C202.588 311.773 188.727 320.934 161.877 339.059C157.943 341.761 154.379 343.077 151.186 343.008C147.667 342.932 140.896 341.018 135.863 339.382C129.689 337.375 124.783 336.314 125.21 332.906C125.432 331.131 127.877 329.315 132.544 327.459Z" fill="white"/>
<defs>
<linearGradient id="paint0_linear_10_78" x1="216.436" y1="361.759" x2="422.489" y2="170.222" gradientUnits="userSpaceOnUse">
<stop stop-color="#B100FE"/>
<stop offset="1" stop-color="#510DFE"/>
</linearGradient>
<linearGradient id="paint1_linear_10_78" x1="186.5" y1="229.921" x2="186.5" y2="425.617" gradientUnits="userSpaceOnUse">
<stop stop-color="#2AABEE"/>
<stop offset="1" stop-color="#229ED9"/>
</linearGradient>
</defs>
</svg>
